<svg version="1.2" xmlns="http://www.w3.org/2000/svg" viewBox="0 0 512 312" width="512" height="312">
	<title>f1-svg</title>
	<style>
		.s0 { fill: #000000 } 
	</style>
	<g id="Layer">
		<path id="Layer" class="s0" d="m196 61c-32 5.7-60.6 20.7-84 44-9.4 9.5-112 137.7-112 140.1 0 3.8 2.3 6.9 5.9 8 2.3 0.7 17.1 0.9 42.2 0.7 32.5-0.3 38.9-0.5 40.4-1.8 3.5-2.9 26.5-32.3 27.1-34.6 0.4-1.5 0-3.4-1-4.9-1.6-2.5-1.6-2.7 2.6-8 4.1-5.3 4.3-5.4 8.3-4.9 3.1 0.5 4.5 0.2 6.1-1.2 1.2-1.1 8.6-10 16.5-19.8 7.8-9.9 16.3-20 18.8-22.4 10.2-9.9 26.9-18.6 40.5-21.1 3.9-0.7 28.4-1.1 69.5-1.2 35-0.1 64.7-0.4 66.1-0.8 2.8-0.7 52.6-62 53.7-65.9 0.4-1.6-0.1-3.3-1.4-5l-2-2.7-93.4-0.2c-87-0.1-94.1 0-103.9 1.7z"/>
		<path id="Layer" class="s0" d="m421.3 62.2c-6.9 7.4-143.7 179.4-144.7 182-0.8 2.3-0.7 3.2 1 5.5 1.2 1.5 3.2 3.1 4.5 3.4 4.1 1.2 77.3 1 80.5-0.2 4-1.4 148.8-182.5 149.2-186.6 0.2-1.8-0.5-3.6-1.8-5.1l-2.1-2.2h-41.7-41.8z"/>
		<path id="Layer" class="s0" d="m207 150.6c-8.8 2.3-21.4 9-27.6 14.7-6.9 6.2-63.2 76.2-64.1 79.5-0.7 2.9 2.4 7.4 5.8 8.3 4 1.1 77.3 1 80.5-0.1 2-0.7 6.5-5.6 13.9-15l11-13.9 21-0.2c11.6 0 22.1-0.4 23.5-0.8 2.8-0.7 52.6-62 53.7-65.9 0.4-1.6-0.1-3.3-1.4-5l-2-2.7-54.4-0.2c-44.7-0.1-55.4 0.1-59.9 1.3z"/>
	</g>
</svg>