<?xml version="1.0" standalone="no"?>
<!DOCTYPE svg PUBLIC "-//W3C//DTD SVG 20010904//EN"
 "http://www.w3.org/TR/2001/REC-SVG-20010904/DTD/svg10.dtd">
<svg version="1.0" xmlns="http://www.w3.org/2000/svg"
 width="512.000000pt" height="512.000000pt" viewBox="0 0 512.000000 512.000000"
 preserveAspectRatio="xMidYMid meet">

<g transform="translate(0.000000,512.000000) scale(0.100000,-0.100000)"
fill="#000000" stroke="none">
<path d="M1666 3383 c-193 -41 -362 -159 -458 -318 l-33 -55 -90 3 -89 2 -13
80 c-7 44 -18 111 -24 150 -9 53 -18 75 -39 97 l-28 28 -415 0 -414 0 -26 -24
c-14 -13 -29 -35 -32 -49 -10 -37 169 -1172 190 -1203 24 -38 54 -44 205 -44
l138 0 13 -37 c44 -139 136 -233 267 -273 81 -25 153 -25 234 0 131 40 223
134 267 273 l13 37 85 0 c83 0 86 1 119 34 36 36 42 67 22 111 -19 42 -57 55
-155 55 l-88 0 -25 51 c-35 74 -107 144 -187 182 -62 29 -76 32 -168 32 -92 0
-106 -3 -168 -32 -80 -38 -156 -112 -189 -183 l-23 -50 -97 0 -97 0 -6 33
c-20 115 -55 349 -55 366 0 18 8 20 114 23 104 3 117 5 140 27 31 30 42 73 26
112 -21 49 -54 59 -193 59 l-124 0 -17 113 c-10 61 -20 129 -23 150 l-6 37
276 0 275 0 10 -62 c6 -35 17 -101 24 -148 10 -67 18 -91 39 -115 l27 -30 164
-5 164 -5 94 -98 c105 -110 228 -208 308 -245 83 -38 146 -51 297 -62 182 -13
326 -41 467 -89 177 -61 176 -60 75 -60 -98 -1 -136 -15 -155 -56 -15 -33 -15
-57 0 -90 24 -52 43 -55 352 -55 l284 0 13 -37 c44 -137 138 -233 266 -273 82
-25 153 -25 235 0 131 40 223 134 267 273 l13 37 353 0 353 0 6 -34 c4 -21 19
-45 37 -60 l31 -26 279 0 279 0 32 29 33 29 3 241 3 242 -30 29 -29 30 -290 0
c-278 0 -290 -1 -316 -21 -14 -11 -26 -27 -26 -35 0 -8 -2 -14 -5 -14 -3 0
-37 25 -77 56 -233 180 -749 419 -1068 496 -123 29 -290 35 -365 14 -50 -15
-69 -27 -115 -75 -65 -68 -86 -81 -135 -81 -102 0 -153 97 -105 201 24 53 25
88 5 137 -19 43 -50 78 -86 98 -33 17 -599 94 -682 93 -34 0 -93 -7 -131 -16z
m444 -218 c134 -19 245 -37 247 -39 3 -2 0 -21 -6 -43 -32 -114 1 -237 85
-320 74 -71 142 -96 249 -91 99 5 161 36 235 115 l49 53 76 0 c42 0 111 -7
153 -16 245 -50 689 -240 925 -394 103 -68 217 -158 217 -172 0 -4 -145 -8
-323 -8 l-324 0 -24 52 c-34 73 -106 143 -186 181 -62 29 -76 32 -168 32 -93
0 -105 -2 -167 -33 -75 -37 -148 -104 -179 -163 -10 -22 -21 -39 -23 -39 -2 0
-68 31 -147 69 -339 161 -533 218 -852 247 -101 10 -194 24 -225 34 -73 26
-160 91 -271 204 -94 95 -95 95 -80 123 25 49 132 148 195 181 138 72 208 75
544 27z m2810 -935 l0 -100 -150 0 -150 0 0 100 0 100 150 0 150 0 0 -100z
m-3905 71 c52 -23 102 -81 111 -126 19 -104 -19 -188 -106 -232 -83 -43 -182
-19 -243 59 -32 40 -45 107 -33 173 14 73 108 145 191 145 22 0 58 -9 80 -19z
m2380 0 c52 -23 102 -81 111 -126 19 -104 -19 -188 -106 -232 -83 -43 -182
-19 -243 59 -32 40 -45 107 -33 173 14 73 108 145 191 145 22 0 58 -9 80 -19z"/>
<path d="M1871 2236 c-90 -50 -50 -186 55 -186 35 0 94 59 94 94 0 80 -80 130
-149 92z"/>
</g>
</svg>
